<svg width="250" height="100" xmlns="http://www.w3.org/2000/svg" fill-rule="evenodd" clip-rule="evenodd" stroke-linejoin="round" stroke-miterlimit="2"><path d="M34.934 45.187a4.18 4.18 0 011.489-.498c2.4-.283 6.917 3.865 9.29 8.687 3.527 7.171 2.123 16.577-1.95 23.092C38.646 84.653 30 91.408 19.24 91.641c-3.863.084-8-.556-11.98-3.431-8.023-5.796-7.749-18.466-5.558-25.995C3.598 55.701 8.767 45.084 18.79 40.1c9.595-4.77 14.171-1.674 14.308-1.51 1.242 1.486 1.922 4.287 1.836 6.597zm1.972 8.98c-1.775-3.589-3.548-3.95-3.548-3.95s-.714.86-2.897.963c-2.327.108-4.671.791-6.277 1.67-1.907 1.044-3.736 2.47-4.758 3.501-8.03 8.108-7.266 18.843-5.419 22.055 1.293 2.25 4.202 3.93 9.983 1.662 12.047-4.729 16.569-18.514 12.916-25.901zM236.53 45.187a4.18 4.18 0 011.488-.498c2.4-.283 6.918 3.865 9.29 8.687 3.528 7.171 2.124 16.577-1.95 23.092-5.116 8.185-13.761 14.94-24.522 15.173-3.863.084-8-.556-11.98-3.431-8.023-5.796-7.75-18.466-5.559-25.995 1.896-6.514 7.065-17.131 17.089-22.115 9.595-4.77 14.17-1.674 14.308-1.51 1.241 1.486 1.921 4.287 1.835 6.597zm1.971 8.98c-1.774-3.589-3.548-3.95-3.548-3.95s-.714.86-2.896.963c-2.328.108-4.672.791-6.277 1.67-1.908 1.044-3.736 2.47-4.758 3.501-8.031 8.108-7.266 18.843-5.42 22.055 1.293 2.25 4.203 3.93 9.983 1.662 12.048-4.729 16.57-18.514 12.916-25.901z" fill="#2b394e"/><path d="M134.923 23.459c-.073 10.937 14.231 6.825 17.234-3.487.95-3.264 1.528-8.1-1.534-10.513-2.985-2.352-6.815-2.112-9.427.229-3.698 3.314-6.233 7.664-6.273 13.77zM165.082 34.193s-.683 1.077-.976 1.642c-.542 1.046-1.054 2.103-1.598 3.152-1.495 2.881-2.75 5.784-3.973 8.79-4.324 10.614-8.593 22.342-10.877 33.56-.977 4.8-3.23 13.109 3.84 13.162 3.68.028 6.71-5.724 8.302-8.367 5.272-8.758 11.519-19.219 19.665-25.725 5.787-4.622 12.188-8.073 19.178-10.5 2.413-.838 4.426-2.174 3.804-3.666-1.061-2.55-5.187-2.56-8.334-2.41-10.455.502-19.666 7.944-19.816 7.704-.049-.078 1.084-3.303 1.173-3.758.519-2.67 1.084-4.574.222-7.991-1.96-7.767-10.61-5.593-10.61-5.593zM119.294 91.63c.883.742 2.302.993 3.486.525 2.143-.845 3.026-3.33 3.582-4.506 2.433-5.15 6.414-14.864 12.3-32.923.41-1.256 2.526-6.937-.538-11.256-1.126-1.587-2.954-2.593-4.808-3.003-6.819-1.504-9.86 6.07-11.67 11.812-2.405 7.637-6 24.306-5.271 32.256.11 1.195-.221 4.458 2.919 7.095z" fill="#2b394e" fill-rule="nonzero"/><path d="M76.194 10.798C71.566 21 58.613 60.746 58.308 61.783c-1.707 5.795-8.284 24.402-8.596 30.864-.22 4.574 2.248 5.578 3.975 4.711 2.078-1.041 3.566-4.388 4.346-6.191C62.4 81.06 70.14 65.2 76.15 51.367c4.315-9.932 19.293-36.06 13.945-45.534-3.17-5.617-9.853-3.918-9.853-3.918s-2.989 6.545-4.049 8.883z" fill="#2b394e"/><path d="M105.356 31.588c0 .68-20.953 5.645-46.764 24.447-2.014 1.466-3.907 5.547-1.94 8.686 1.452 2.314 27.733 21.063 49.759 23.158 4.971.474 5.477-3.464 1.227-4.494-8.122-1.966-28.795-15.623-34.733-23.938-1.627-2.276 18.175-9.71 30.964-16.066 5.284-2.627 1.487-11.793 1.487-11.793z" fill="#2b394e"/></svg>